<?xml version="1.0" standalone="no"?>
<!DOCTYPE svg PUBLIC "-//W3C//DTD SVG 20010904//EN"
 "http://www.w3.org/TR/2001/REC-SVG-20010904/DTD/svg10.dtd">
<svg version="1.0" xmlns="http://www.w3.org/2000/svg"
 width="100.000000pt" height="100.000000pt" viewBox="0 0 100.000000 100.000000"
 preserveAspectRatio="xMidYMid meet">
<metadata>
Created by potrace 1.11, written by Peter Selinger 2001-2013
</metadata>
<g transform="translate(0.000000,100.000000) scale(0.100000,-0.100000)"
fill="#000000" stroke="none">
<path d="M309 940 c-23 -18 -23 -19 -4 -19 20 0 55 21 55 33 0 13 -29 5 -51
-14z"/>
<path d="M510 931 c0 -5 7 -11 14 -14 12 -5 13 -13 6 -38 -12 -40 -19 -45 -73
-47 -41 -2 -43 -1 -70 48 -16 27 -32 50 -36 50 -11 0 -32 -26 -26 -32 2 -2 7
-22 10 -44 3 -21 7 -43 9 -49 2 -5 -18 -26 -44 -46 -46 -36 -47 -36 -81 -21
-19 8 -38 14 -42 13 -4 -1 -3 8 3 19 16 29 -5 25 -29 -6 -23 -30 -18 -52 7
-32 10 7 14 8 9 3 -4 -5 4 -21 18 -35 l26 -27 -23 -71 c-20 -63 -27 -73 -55
-82 -54 -19 -84 -21 -99 -9 -11 9 -14 6 -14 -17 0 -34 14 -61 24 -46 5 9 116
8 120 0 1 -2 9 -23 18 -48 9 -25 19 -53 23 -62 8 -19 -22 -50 -56 -58 l-21 -5
22 -28 c20 -25 49 -40 35 -18 -7 12 34 41 58 41 10 0 30 -11 44 -25 15 -13 40
-29 55 -36 26 -11 28 -15 23 -51 -4 -22 -10 -51 -16 -65 -13 -36 -12 -40 21
-51 31 -11 55 3 31 17 -14 9 -4 39 28 86 17 24 28 30 63 31 24 1 56 5 71 8 25
4 32 -1 63 -50 25 -38 40 -54 51 -50 8 3 16 6 17 6 2 0 -3 24 -11 53 -18 68
-12 86 39 121 l42 29 36 -20 c19 -10 34 -25 32 -31 -3 -18 19 -14 34 6 15 19
19 46 6 38 -11 -6 -72 49 -72 65 0 8 9 28 19 45 17 28 23 31 79 33 49 2 61 -1
66 -16 6 -15 8 -15 16 -3 6 8 10 27 10 42 0 20 -4 25 -17 22 -10 -3 -42 4 -72
14 -44 15 -55 23 -57 43 -2 13 -6 36 -8 51 -4 22 1 31 25 48 16 12 36 19 44
16 20 -7 20 24 1 50 -14 18 -15 18 -28 1 -7 -10 -27 -20 -43 -23 -25 -3 -34 1
-52 29 -13 18 -23 38 -23 45 0 13 37 80 59 105 14 17 14 20 -4 33 -10 8 -28
14 -38 14 -16 0 -17 -3 -7 -15 10 -12 6 -19 -21 -42 -59 -51 -61 -51 -99 -35
-19 9 -41 17 -48 18 -8 1 -16 5 -18 7 -10 10 -10 82 -1 95 7 9 0 12 -32 12
-22 0 -41 -4 -41 -9z"/>
<path d="M682 75 c-18 -8 -31 -19 -27 -25 7 -12 65 15 65 30 0 12 2 12 -38 -5z"/>
</g>
</svg>
